<svg xmlns="http://www.w3.org/2000/svg" version="1.1" xmlns:xlink="http://www.w3.org/1999/xlink" xmlns:svgjs="http://svgjs.dev/svgjs" width="1440" height="560" preserveAspectRatio="none" viewBox="0 0 1440 560"><g mask="url(&quot;#SvgjsMask1982&quot;)" fill="none"><rect width="1440" height="560" x="0" y="0" fill="url(&quot;#SvgjsLinearGradient1983&quot;)"></rect><path d="M1440 0L923.48 0L1440 153.04z" fill="rgba(255, 255, 255, .1)"></path><path d="M923.48 0L1440 153.04L1440 235.25L902.75 0z" fill="rgba(255, 255, 255, .075)"></path><path d="M902.75 0L1440 235.25L1440 383.85L816.96 0z" fill="rgba(255, 255, 255, .05)"></path><path d="M816.96 0L1440 383.85L1440 470.87L760.64 0z" fill="rgba(255, 255, 255, .025)"></path><path d="M0 560L250.54 560L0 373.52z" fill="rgba(0, 0, 0, .1)"></path><path d="M0 373.52L250.54 560L691.9399999999999 560L0 315.71999999999997z" fill="rgba(0, 0, 0, .075)"></path><path d="M0 315.72L691.9399999999999 560L967.8499999999999 560L0 244.82000000000002z" fill="rgba(0, 0, 0, .05)"></path><path d="M0 244.82000000000005L967.8499999999999 560L1149.03 560L0 166.61000000000007z" fill="rgba(0, 0, 0, .025)"></path></g><defs><mask id="SvgjsMask1982"><rect width="1440" height="560" fill="#ffffff"></rect></mask><linearGradient x1="15.28%" y1="-39.29%" x2="84.72%" y2="139.29%" gradientUnits="userSpaceOnUse" id="SvgjsLinearGradient1983"><stop stop-color="rgba(255, 255, 255, 1)" offset="0"></stop><stop stop-color="rgba(72, 105, 255, 1)" offset="1"></stop></linearGradient></defs></svg>